<?xml version="1.0" encoding="UTF-8"?>
<svg xmlns="http://www.w3.org/2000/svg" id="Layer_1" data-name="Layer 1" viewBox="0 0 24 24">
  <path d="m19.071,2.929c-1.889-1.889-4.4-2.929-7.071-2.929s-5.182,1.04-7.071,2.929c-3.899,3.899-3.899,10.243.004,14.146l7.067,6.911,7.071-6.915c3.899-3.899,3.899-10.243,0-14.143Zm-.703,13.432l-6.368,6.228-6.364-6.224c-3.509-3.51-3.509-9.219,0-12.729,1.7-1.699,3.96-2.636,6.364-2.636s4.664.937,6.364,2.636c3.509,3.51,3.509,9.219.004,12.725Zm-2.227-8.763l-2.813-2.148c-.781-.598-1.873-.598-2.656,0l-2.812,2.148c-.539.41-.86,1.06-.86,1.738v4.664h10v-4.664c0-.679-.322-1.328-.859-1.738Zm-3.141,5.402h-2v-3h2v3Zm3,0h-2v-4h-4v4h-2v-3.664c0-.368.174-.721.467-.943l2.812-2.148c.425-.324,1.018-.324,1.442,0l2.813,2.148c.292.223.466.575.466.943v3.664Z"/>
</svg>
